P2
# Created by GIMP version 2.10.34 PNM plug-in
8 8
255
0
22
34
53
53
34
22
0
22
56
96
127
127
96
56
22
34
96
159
194
194
159
96
34
53
127
194
255
254
194
127
53
53
127
194
255
254
194
127
53
34
96
159
194
194
159
96
34
22
56
96
127
127
96
56
22
0
22
34
53
53
34
22
0
