P2
# Created by GIMP version 2.10.34 PNM plug-in
8 8
255
0
0
0
0
0
0
0
0
0
0
0
0
0
0
0
0
0
0
0
0
0
0
0
0
0
0
0
0
0
0
0
0
0
0
0
0
0
0
0
0
13
13
0
0
0
0
13
13
64
42
28
0
0
34
46
50
157
205
73
46
46
73
205
173
