P2
# Created by GIMP version 2.10.34 PNM plug-in
8 8
255
0
0
0
0
0
0
0
0
0
69
141
154
154
141
69
0
0
73
119
159
159
113
88
0
13
75
88
246
246
81
69
0
13
79
136
251
251
136
85
0
0
125
179
173
173
179
125
0
0
104
73
13
13
73
104
0
0
0
0
0
0
0
0
0
