P2
# Created by GIMP version 2.10.34 PNM plug-in
8 8
255
131
143
150
155
155
150
143
132
121
131
139
143
143
139
131
121
93
101
106
167
167
106
101
93
56
61
79
214
214
79
61
56
22
46
83
231
231
83
46
22
66
83
143
166
166
143
83
66
213
213
197
0
0
197
213
213
0
0
0
0
0
0
0
0
