P2
# Created by GIMP version 2.10.34 PNM plug-in
8 8
255
0
0
0
0
0
0
0
0
0
0
0
0
0
0
0
0
0
0
0
0
0
0
0
0
0
0
0
0
0
0
0
0
0
0
0
0
0
0
0
0
0
0
46
64
64
46
0
0
0
66
93
152
152
93
66
0
73
138
192
219
219
192
138
73
