P2
# Created by GIMP version 2.10.34 PNM plug-in
8 8
255
0
0
0
0
0
0
0
0
0
0
0
0
0
0
0
0
0
0
0
0
0
0
0
0
0
0
0
0
0
0
0
0
0
0
0
0
0
0
0
0
0
0
0
0
0
0
0
0
53
64
77
73
79
69
69
73
131
150
187
206
214
186
150
135
